<mxfile host="65bd71144e">
    <diagram id="ifk8gShlGlm2UNi2icbx" name="ページ1">
        <mxGraphModel dx="1310" dy="1594" grid="1" gridSize="10" guides="1" tooltips="1" connect="1" arrows="1" fold="1" page="1" pageScale="1" pageWidth="1169" pageHeight="827" math="0" shadow="0">
            <root>
                <mxCell id="0"/>
                <mxCell id="1" parent="0"/>
                <mxCell id="2" value="倉庫担当者" style="shape=umlActor;verticalLabelPosition=bottom;verticalAlign=top;html=1;" vertex="1" parent="1">
                    <mxGeometry x="50" y="150" width="30" height="60" as="geometry"/>
                </mxCell>
                <mxCell id="3" value="出荷指示管理一覧" style="shape=umlBoundary;whiteSpace=wrap;html=1;" vertex="1" parent="1">
                    <mxGeometry x="190" y="150" width="100" height="80" as="geometry"/>
                </mxCell>
                <mxCell id="4" value="出荷指示&lt;div&gt;制御&lt;/div&gt;" style="ellipse;shape=umlControl;whiteSpace=wrap;html=1;" vertex="1" parent="1">
                    <mxGeometry x="400" y="150" width="70" height="80" as="geometry"/>
                </mxCell>
                <mxCell id="5" value="出荷指示DB" style="ellipse;shape=umlEntity;whiteSpace=wrap;html=1;" vertex="1" parent="1">
                    <mxGeometry x="640" y="150" width="80" height="80" as="geometry"/>
                </mxCell>
                <mxCell id="6" value="" style="endArrow=open;endFill=1;endSize=12;html=1;exitX=1.032;exitY=0.552;exitDx=0;exitDy=0;exitPerimeter=0;entryX=0;entryY=0.552;entryDx=0;entryDy=0;entryPerimeter=0;" edge="1" parent="1">
                    <mxGeometry width="160" relative="1" as="geometry">
                        <mxPoint x="293.20000000000005" y="189.49999999999997" as="sourcePoint"/>
                        <mxPoint x="400" y="189.49999999999997" as="targetPoint"/>
                    </mxGeometry>
                </mxCell>
                <mxCell id="7" value="" style="endArrow=open;endFill=1;endSize=12;html=1;exitX=1.032;exitY=0.552;exitDx=0;exitDy=0;exitPerimeter=0;entryX=0;entryY=0.5;entryDx=0;entryDy=0;" edge="1" parent="1" target="5">
                    <mxGeometry width="160" relative="1" as="geometry">
                        <mxPoint x="470" y="189.5" as="sourcePoint"/>
                        <mxPoint x="577" y="189.5" as="targetPoint"/>
                    </mxGeometry>
                </mxCell>
                <mxCell id="8" value="出荷対象の選択要求" style="text;html=1;align=center;verticalAlign=middle;resizable=0;points=[];autosize=1;strokeColor=none;fillColor=none;" vertex="1" parent="1">
                    <mxGeometry x="490" y="160" width="130" height="30" as="geometry"/>
                </mxCell>
                <mxCell id="9" value="出荷指示詳細画面" style="shape=umlBoundary;whiteSpace=wrap;html=1;" vertex="1" parent="1">
                    <mxGeometry x="190" y="280" width="100" height="80" as="geometry"/>
                </mxCell>
                <mxCell id="10" value="" style="endArrow=open;endFill=1;endSize=12;html=1;entryX=1.003;entryY=0.475;entryDx=0;entryDy=0;entryPerimeter=0;exitX=0.065;exitY=0.864;exitDx=0;exitDy=0;exitPerimeter=0;" edge="1" parent="1" source="4" target="9">
                    <mxGeometry width="160" relative="1" as="geometry">
                        <mxPoint x="440" y="230" as="sourcePoint"/>
                        <mxPoint x="510" y="390" as="targetPoint"/>
                    </mxGeometry>
                </mxCell>
                <mxCell id="11" value="出荷指示詳細画面を表示する" style="text;html=1;align=center;verticalAlign=middle;resizable=0;points=[];autosize=1;strokeColor=none;fillColor=none;" vertex="1" parent="1">
                    <mxGeometry x="280" y="258" width="180" height="30" as="geometry"/>
                </mxCell>
                <mxCell id="12" value="ピッキング完了の登録" style="ellipse;shape=umlControl;whiteSpace=wrap;html=1;" vertex="1" parent="1">
                    <mxGeometry x="430" y="370" width="70" height="80" as="geometry"/>
                </mxCell>
                <mxCell id="17" value="" style="endArrow=open;endFill=1;endSize=12;html=1;exitX=0.984;exitY=0.739;exitDx=0;exitDy=0;exitPerimeter=0;entryX=0.01;entryY=0.584;entryDx=0;entryDy=0;entryPerimeter=0;" edge="1" parent="1" source="9" target="12">
                    <mxGeometry width="160" relative="1" as="geometry">
                        <mxPoint x="303.20000000000005" y="199.49999999999997" as="sourcePoint"/>
                        <mxPoint x="410" y="199.49999999999997" as="targetPoint"/>
                    </mxGeometry>
                </mxCell>
                <mxCell id="18" value="ピッキングDB" style="ellipse;shape=umlEntity;whiteSpace=wrap;html=1;" vertex="1" parent="1">
                    <mxGeometry x="640" y="350" width="80" height="80" as="geometry"/>
                </mxCell>
                <mxCell id="22" value="" style="endArrow=open;endFill=1;endSize=12;html=1;entryX=0;entryY=0.723;entryDx=0;entryDy=0;exitX=0.983;exitY=0.473;exitDx=0;exitDy=0;exitPerimeter=0;entryPerimeter=0;" edge="1" parent="1" source="12" target="18">
                    <mxGeometry width="160" relative="1" as="geometry">
                        <mxPoint x="470.00000000000006" y="389.5" as="sourcePoint"/>
                        <mxPoint x="576.8" y="389.5" as="targetPoint"/>
                    </mxGeometry>
                </mxCell>
                <mxCell id="23" value="出荷準備ステータスDB" style="ellipse;shape=umlEntity;whiteSpace=wrap;html=1;" vertex="1" parent="1">
                    <mxGeometry x="640" y="550" width="85" height="80" as="geometry"/>
                </mxCell>
                <mxCell id="24" value="" style="endArrow=open;endFill=1;endSize=12;html=1;exitX=0.97;exitY=0.756;exitDx=0;exitDy=0;exitPerimeter=0;entryX=0.277;entryY=0.016;entryDx=0;entryDy=0;entryPerimeter=0;" edge="1" parent="1" source="4" target="23">
                    <mxGeometry width="160" relative="1" as="geometry">
                        <mxPoint x="350" y="390" as="sourcePoint"/>
                        <mxPoint x="510" y="390" as="targetPoint"/>
                    </mxGeometry>
                </mxCell>
                <mxCell id="25" value="出荷準備ステータスを完了に更新" style="text;html=1;align=center;verticalAlign=middle;resizable=0;points=[];autosize=1;strokeColor=none;fillColor=none;" vertex="1" parent="1">
                    <mxGeometry x="570" y="468" width="200" height="30" as="geometry"/>
                </mxCell>
                <mxCell id="27" value="メッセージ表示画面" style="shape=umlBoundary;whiteSpace=wrap;html=1;" vertex="1" parent="1">
                    <mxGeometry x="190" y="498" width="100" height="80" as="geometry"/>
                </mxCell>
                <mxCell id="28" value="" style="endArrow=open;endFill=1;endSize=12;html=1;exitX=0.477;exitY=0.996;exitDx=0;exitDy=0;exitPerimeter=0;entryX=0.754;entryY=0.025;entryDx=0;entryDy=0;entryPerimeter=0;" edge="1" parent="1" target="27">
                    <mxGeometry width="160" relative="1" as="geometry">
                        <mxPoint x="430" y="229.68000000000006" as="sourcePoint"/>
                        <mxPoint x="267.14687036159796" y="443" as="targetPoint"/>
                    </mxGeometry>
                </mxCell>
                <mxCell id="30" value="出荷準備完了メッセージを&lt;div&gt;表示&lt;/div&gt;" style="text;html=1;align=center;verticalAlign=middle;resizable=0;points=[];autosize=1;strokeColor=none;fillColor=none;" vertex="1" parent="1">
                    <mxGeometry x="190" y="414" width="170" height="40" as="geometry"/>
                </mxCell>
                <mxCell id="32" value="配送システム" style="ellipse;shape=umlEntity;whiteSpace=wrap;html=1;" vertex="1" parent="1">
                    <mxGeometry x="640" y="-40" width="80" height="80" as="geometry"/>
                </mxCell>
                <mxCell id="34" value="" style="endArrow=open;endFill=1;endSize=12;html=1;" edge="1" parent="1" source="4" target="32">
                    <mxGeometry width="160" relative="1" as="geometry">
                        <mxPoint x="303.20000000000005" y="199.49999999999997" as="sourcePoint"/>
                        <mxPoint x="410" y="199.49999999999997" as="targetPoint"/>
                    </mxGeometry>
                </mxCell>
                <mxCell id="35" value="配送依頼を送信" style="text;html=1;align=center;verticalAlign=middle;resizable=0;points=[];autosize=1;strokeColor=none;fillColor=none;" vertex="1" parent="1">
                    <mxGeometry x="530" y="100" width="110" height="30" as="geometry"/>
                </mxCell>
                <mxCell id="36" value="" style="endArrow=open;endFill=1;endSize=12;html=1;exitX=0;exitY=0.5;exitDx=0;exitDy=0;entryX=0.449;entryY=0.127;entryDx=0;entryDy=0;entryPerimeter=0;" edge="1" parent="1" source="32" target="4">
                    <mxGeometry width="160" relative="1" as="geometry">
                        <mxPoint x="370" y="100" as="sourcePoint"/>
                        <mxPoint x="530" y="100" as="targetPoint"/>
                    </mxGeometry>
                </mxCell>
                <mxCell id="37" value="配送依頼受注完了&lt;div&gt;メッセージを送信&lt;/div&gt;" style="text;html=1;align=center;verticalAlign=middle;resizable=0;points=[];autosize=1;strokeColor=none;fillColor=none;" vertex="1" parent="1">
                    <mxGeometry x="410" y="60" width="120" height="40" as="geometry"/>
                </mxCell>
                <mxCell id="39" value="" style="endArrow=open;endFill=1;endSize=12;html=1;exitX=0.682;exitY=0.955;exitDx=0;exitDy=0;exitPerimeter=0;entryX=0.754;entryY=0.025;entryDx=0;entryDy=0;entryPerimeter=0;" edge="1" parent="1" source="4">
                    <mxGeometry width="160" relative="1" as="geometry">
                        <mxPoint x="440" y="239.68000000000006" as="sourcePoint"/>
                        <mxPoint x="275" y="510" as="targetPoint"/>
                    </mxGeometry>
                </mxCell>
                <mxCell id="40" value="&lt;font style=&quot;color: rgb(255, 51, 51);&quot;&gt;出荷指示がありませんと&lt;/font&gt;&lt;div&gt;&lt;font style=&quot;color: rgb(255, 51, 51);&quot;&gt;表示&lt;/font&gt;&lt;/div&gt;" style="text;html=1;align=center;verticalAlign=middle;resizable=0;points=[];autosize=1;strokeColor=none;fillColor=none;" vertex="1" parent="1">
                    <mxGeometry x="280" y="463" width="160" height="40" as="geometry"/>
                </mxCell>
                <mxCell id="42" value="" style="endArrow=open;endFill=1;endSize=12;html=1;exitX=1.032;exitY=0.552;exitDx=0;exitDy=0;exitPerimeter=0;entryX=0;entryY=0.552;entryDx=0;entryDy=0;entryPerimeter=0;" edge="1" parent="1">
                    <mxGeometry width="160" relative="1" as="geometry">
                        <mxPoint x="80.00000000000006" y="188.99999999999997" as="sourcePoint"/>
                        <mxPoint x="186.8" y="188.99999999999997" as="targetPoint"/>
                    </mxGeometry>
                </mxCell>
            </root>
        </mxGraphModel>
    </diagram>
</mxfile>